<?xml version="1.0" encoding="UTF-8" standalone="no"?>
<svg width="195px" height="20px" viewBox="0 0 195 20" version="1.1" xmlns="http://www.w3.org/2000/svg" xmlns:xlink="http://www.w3.org/1999/xlink">
    <!-- Generator: Sketch 40.3 (33839) - http://www.bohemiancoding.com/sketch -->
    <title>logotype-white</title>
    <desc>Created with Sketch.</desc>
    <defs>
        <polygon id="path-1" points="17.253913 0 0.423478261 0 0.423478261 19.9998261 17.253913 19.9998261 17.253913 3.08931624e-15"></polygon>
    </defs>
    <g id="Page-1" stroke="none" stroke-width="1" fill="none" fill-rule="evenodd">
        <g id="Artboard" transform="translate(-32.000000, -68.000000)">
            <g id="logotype-white" transform="translate(32.000000, 68.000000)">
                <path d="M73.7762609,7.68608696 C73.7762609,7.68608696 75.8266957,7.32 75.8275652,4.75217391 C75.7136522,3.19217391 74.8093043,1.84 73.304087,1.00521739 C72.1788696,0.38 70.7484348,0.0634782609 69.0553913,0.0634782609 C69.0432174,0.0634782609 69.0310435,0.0652173913 69.0188696,0.0652173913 C68.9997391,0.0652173913 68.984087,0.0634782609 68.9649565,0.0634782609 C64.611913,0.0634782609 61.0588696,2.83391304 61.0588696,6.36521739 C61.0588696,7.25043478 61.2832174,8.03130435 61.6893043,8.70608696 C62.304087,10.0808696 63.411913,10.8826087 63.411913,10.8826087 C63.411913,10.8826087 62.3588696,11.2756522 61.604087,12.4521739 C61.2553913,13.1173913 61.0545217,13.8843478 61.0545217,14.7104348 C61.0545217,18.1313043 64.8084348,19.9208696 68.5197391,19.9208696 C73.3510435,19.9208696 76.5971304,16.9278261 76.5971304,12.4721739 C76.5971304,9.71217391 73.7762609,7.68608696 73.7762609,7.68608696" id="Fill-1" fill="#FFFFFF"></path>
                <path d="M194.484957,10.0167826 C194.484957,9.0846087 194.094522,8.23156522 193.443217,7.56721739 C194.008435,6.81678261 194.342348,5.882 194.342348,4.87069565 C194.342348,2.38547826 192.327565,0.368956522 189.840609,0.368956522 L189.391043,0.368956522 L184.79713,0.368956522 C182.244087,0.368956522 180.245826,2.36808696 180.245826,4.9193913 L180.245826,15.1141739 C180.245826,17.6646087 182.244087,19.6637391 184.79713,19.6637391 L189.502348,19.6637391 L189.840609,19.6637391 C192.327565,19.6637391 194.342348,17.6489565 194.342348,15.1628696 C194.342348,14.1515652 194.008435,13.2176522 193.443217,12.4663478 C194.094522,11.802 194.484957,10.948087 194.484957,10.0167826" id="Fill-3" fill="#FFFFFF"></path>
                <path d="M7.83756522,19.7445217 C5.18626087,19.7445217 3.26191304,17.781913 3.26191304,15.0758261 L3.26191304,8.98191304 C1.31147826,8.45930435 0.000173913043,6.81495652 0.000173913043,4.69408696 C0.000173913043,2.10713043 1.948,0.230608696 4.63234783,0.230608696 L11.0436522,0.230608696 C13.7271304,0.230608696 15.674087,2.10713043 15.674087,4.69408696 C15.674087,6.81495652 14.3653913,8.45930435 12.4132174,8.98191304 L12.4132174,15.0758261 C12.4132174,17.781913 10.4897391,19.7445217 7.83756522,19.7445217" id="Fill-5" fill="#FFFFFF"></path>
                <path d="M50.550087,19.8004348 C47.8987826,19.8004348 45.9744348,17.8369565 45.9744348,15.1317391 L45.9744348,4.84304348 C45.9744348,2.13782609 47.8987826,0.174347826 50.550087,0.174347826 C53.2022609,0.174347826 55.1257391,2.13782609 55.1257391,4.84304348 L55.1257391,15.1317391 C55.1257391,17.8369565 53.2022609,19.8004348 50.550087,19.8004348" id="Fill-7" fill="#FFFFFF"></path>
                <path d="M98.8182609,19.7566957 C96.1669565,19.7566957 94.2434783,17.7932174 94.2434783,15.0888696 L94.2434783,4.81756522 C94.2434783,2.25321739 96.2521739,0.242782609 98.8182609,0.242782609 L102.526957,0.242782609 C104.491304,0.242782609 106.332174,0.919304348 107.713913,2.148 C109.27913,3.54191304 110.14087,5.55582609 110.14087,7.81930435 C110.14087,12.008 107.402609,15.0062609 103.388696,15.3445217 C103.270435,17.9166957 101.385217,19.7566957 98.8182609,19.7566957" id="Fill-9" fill="#FFFFFF"></path>
                <path d="M120.469043,19.7566957 C117.902087,19.7566957 115.892522,17.7471304 115.892522,15.1810435 L115.892522,4.9106087 C115.892522,2.20626087 117.81687,0.242782609 120.469043,0.242782609 C123.120348,0.242782609 125.043826,2.20626087 125.043826,4.9106087 L125.043826,10.8288696 L125.220348,10.8288696 C127.872522,10.8288696 129.79687,12.7071304 129.79687,15.2932174 C129.79687,17.8384348 127.829043,19.7566957 125.220348,19.7566957 L120.469043,19.7566957 Z" id="Fill-11" fill="#FFFFFF"></path>
                <path d="M146.87713,19.906087 C145.191043,19.906087 144.133652,19.1269565 143.544087,18.4721739 C143.187565,18.0773913 142.931913,17.653913 142.738,17.2408696 L142.145826,17.2408696 C141.950174,17.653913 141.696261,18.0773913 141.33887,18.4721739 C140.748435,19.1269565 139.691913,19.906087 138.004957,19.906087 C135.429304,19.906087 133.484957,18.0591304 133.484957,15.6104348 C133.484957,14.7052174 133.640609,13.993913 134.121478,12.6869565 L137.031913,4.83391304 C137.344957,3.9826087 137.703217,3.00521739 138.341478,2.14608696 C139.340609,0.803478261 140.752783,0.0939130435 142.423217,0.0939130435 C144.101478,0.0939130435 145.520609,0.799130435 146.524957,2.13217391 C147.176261,2.99652174 147.536261,3.9773913 147.854522,4.8426087 L150.758,12.6808696 C151.242348,13.993913 151.396261,14.7043478 151.396261,15.6104348 C151.396261,18.0591304 149.453652,19.906087 146.87713,19.906087" id="Fill-13" fill="#FFFFFF"></path>
                <g id="Group-17" transform="translate(156.521739, 0.000000)">
                    <mask id="mask-2" fill="white">
                        <use xlink:href="#path-1"></use>
                    </mask>
                    <g id="Clip-16"></g>
                    <path d="M13.0956522,10.2398261 L13.0956522,9.65895652 C15.3556522,9.48852174 17.1417391,7.54243478 17.1417391,5.172 C17.1417391,2.78678261 15.2904348,-0.000173913043 10.0686957,-0.000173913043 C4.48,-0.000173913043 0.423478261,4.20591304 0.423478261,9.99982609 C0.423478261,15.7937391 4.45652174,19.9998261 10.0130435,19.9998261 C14.2765217,19.9998261 17.253913,17.818087 17.253913,14.6972174 C17.253913,12.2372174 15.4834783,10.3615652 13.0956522,10.2398261" id="Fill-15" fill="#FFFFFF" mask="url(#mask-2)"></path>
                </g>
                <path d="M39.197913,4.80217391 C39.197913,2.25956522 37.1353043,0.199565217 34.5944348,0.199565217 C32.6161739,0.199565217 30.9335652,1.45086957 30.284,3.20304348 L29.7657391,3.20304348 C29.1161739,1.45086957 27.4344348,0.199565217 25.4553043,0.199565217 C22.9126957,0.199565217 20.8518261,2.25956522 20.8518261,4.80217391 C20.8518261,4.80652174 20.8526957,4.81086957 20.8526957,4.81434783 L20.8526957,15.1317391 L20.8553043,15.1317391 C20.8553043,15.1543478 20.8518261,15.176087 20.8518261,15.1986957 C20.8518261,17.7404348 22.9126957,19.8004348 25.4553043,19.8004348 C27.457913,19.8004348 29.1587826,18.5186957 29.7909565,16.7317391 L30.2587826,16.7317391 C30.8909565,18.5186957 32.5918261,19.8004348 34.5944348,19.8004348 C37.1353043,19.8004348 39.197913,17.7404348 39.197913,15.1986957 C39.197913,15.176087 39.1935652,15.1543478 39.1935652,15.1317391 L39.197913,15.1317391 L39.197913,4.80217391 Z" id="Fill-18" fill="#FFFFFF"></path>
            </g>
        </g>
    </g>
</svg>